<svg xmlns="http://www.w3.org/2000/svg" xmlns:xlink="http://www.w3.org/1999/xlink" width="126" height="126" viewBox="0 0 126 126">
  <defs>
    <filter id="Rectangle_1129" x="0" y="0" width="126" height="126" filterUnits="userSpaceOnUse">
      <feOffset dy="3" input="SourceAlpha"/>
      <feGaussianBlur stdDeviation="3" result="blur"/>
      <feFlood flood-opacity="0.161"/>
      <feComposite operator="in" in2="blur"/>
      <feComposite in="SourceGraphic"/>
    </filter>
    <filter id="Subtraction_1" x="13" y="13" width="100" height="100" filterUnits="userSpaceOnUse">
      <feOffset dy="3" input="SourceAlpha"/>
      <feGaussianBlur stdDeviation="3" result="blur-2"/>
      <feFlood flood-opacity="0.161"/>
      <feComposite operator="in" in2="blur-2"/>
      <feComposite in="SourceGraphic"/>
    </filter>
  </defs>
  <g id="Group_355" data-name="Group 355" transform="translate(-8572 1325)">
    <g transform="matrix(1, 0, 0, 1, 8572, -1325)" filter="url(#Rectangle_1129)">
      <rect id="Rectangle_1129-2" data-name="Rectangle 1129" width="108" height="108" rx="20" transform="translate(9 6)" fill="#fff"/>
    </g>
    <g transform="matrix(1, 0, 0, 1, 8572, -1325)" filter="url(#Subtraction_1)">
      <path id="Subtraction_1-2" data-name="Subtraction 1" d="M41,82A15,15,0,0,1,26,67V56H15a15,15,0,1,1,0-30H26V56H56V67A15,15,0,0,1,41,82ZM67,56H56V26H26V15a15,15,0,1,1,30,0V26H67a15,15,0,1,1,0,30Z" transform="translate(22 19)" fill="#00d7df"/>
    </g>
  </g>
</svg>
