<svg xmlns="http://www.w3.org/2000/svg" xmlns:xlink="http://www.w3.org/1999/xlink" width="56" height="56" viewBox="0 0 56 56">
  <defs>
    <filter id="Rectangle_1129" x="0" y="0" width="56" height="56" filterUnits="userSpaceOnUse">
      <feOffset dy="3" input="SourceAlpha"/>
      <feGaussianBlur stdDeviation="3" result="blur"/>
      <feFlood flood-opacity="0.161"/>
      <feComposite operator="in" in2="blur"/>
      <feComposite in="SourceGraphic"/>
    </filter>
    <filter id="Subtraction_1" x="5" y="5" width="47" height="47" filterUnits="userSpaceOnUse">
      <feOffset dy="3" input="SourceAlpha"/>
      <feGaussianBlur stdDeviation="3" result="blur-2"/>
      <feFlood flood-opacity="0.161"/>
      <feComposite operator="in" in2="blur-2"/>
      <feComposite in="SourceGraphic"/>
    </filter>
  </defs>
  <g id="Group_356" data-name="Group 356" transform="translate(-8572 1325)">
    <g transform="matrix(1, 0, 0, 1, 8572, -1325)" filter="url(#Rectangle_1129)">
      <rect id="Rectangle_1129-2" data-name="Rectangle 1129" width="38" height="38" rx="19" transform="translate(9 6)" fill="#fff"/>
    </g>
    <g transform="matrix(1, 0, 0, 1, 8572, -1325)" filter="url(#Subtraction_1)">
      <path id="Subtraction_1-2" data-name="Subtraction 1" d="M14.5,29a5.311,5.311,0,0,1-5.3-5.3v-3.89H5.3A5.3,5.3,0,1,1,5.3,9.2H9.2V19.8H19.8V23.7A5.311,5.311,0,0,1,14.5,29Zm9.2-9.2H19.8V9.2H9.2V5.3A5.3,5.3,0,1,1,19.8,5.3V9.2H23.7a5.3,5.3,0,1,1,0,10.609Z" transform="translate(14 11)" fill="#00d7df"/>
    </g>
  </g>
</svg>
